<svg width="900" height="1080" viewBox="0 0 900 1080" fill="none" xmlns="http://www.w3.org/2000/svg">
  <rect width="900" height="1080" fill="url(#bg)"/>
  <circle cx="226" cy="190" r="170" fill="#F8E9C9" fill-opacity="0.75"/>
  <circle cx="712" cy="866" r="146" fill="#E1B35B" fill-opacity="0.2"/>
  <ellipse cx="448" cy="930" rx="262" ry="54" fill="#000000" fill-opacity="0.24"/>
  <path d="M447 279C367.471 279 303 343.471 303 423V510H591V423C591 343.471 526.529 279 447 279Z" fill="#F3C59C"/>
  <path d="M360 262C360 213.399 399.399 174 448 174C496.601 174 536 213.399 536 262V321H360V262Z" fill="#D49D73"/>
  <path d="M538 255C538 196.458 490.542 149 432 149H417C362.324 149 318 193.324 318 248V262C318 284.091 335.909 302 358 302H538V255Z" fill="#2E211D"/>
  <path d="M331 531H566L621 900H276L331 531Z" fill="#ECE8E1"/>
  <path d="M447 540L505 900H389L447 540Z" fill="#FFFFFF"/>
  <rect x="393" y="520" width="108" height="76" rx="38" fill="#F2D4B1"/>
  <path d="M288 610L355 568L425 715L349 766L288 610Z" fill="#ECE8E1"/>
  <path d="M612 612L545 570L475 717L551 768L612 612Z" fill="#ECE8E1"/>
  <rect x="322" y="347" width="250" height="72" rx="36" fill="#F2D4B1"/>
  <rect x="521" y="484" width="44" height="234" rx="22" fill="#44332D"/>
  <rect x="512" y="470" width="62" height="74" rx="31" fill="#2B1F1A"/>
  <rect x="522" y="523" width="42" height="118" rx="21" fill="#6C5144"/>
  <rect x="430" y="333" width="58" height="12" rx="6" fill="#2A1E1B"/>
  <rect x="373" y="335" width="34" height="10" rx="5" fill="#2A1E1B"/>
  <rect x="494" y="335" width="34" height="10" rx="5" fill="#2A1E1B"/>
  <path d="M419 384C427.667 392 445.3 403.2 456.5 384" stroke="#8A4E45" stroke-width="8" stroke-linecap="round"/>
  <rect x="354" y="301" width="66" height="48" rx="24" stroke="#D8E8FF" stroke-width="8"/>
  <rect x="477" y="301" width="66" height="48" rx="24" stroke="#D8E8FF" stroke-width="8"/>
  <path d="M420 325H476" stroke="#D8E8FF" stroke-width="8" stroke-linecap="round"/>
  <path d="M310 908H593" stroke="#FFFFFF" stroke-opacity="0.1" stroke-width="2"/>
  <defs>
    <linearGradient id="bg" x1="450" y1="0" x2="450" y2="1080" gradientUnits="userSpaceOnUse">
      <stop stop-color="#F3E6CF"/>
      <stop offset="0.45" stop-color="#58473B"/>
      <stop offset="1" stop-color="#1A171C"/>
    </linearGradient>
  </defs>
</svg>
